<?xml version="1.0" encoding="UTF-8" standalone="no"?>
<!-- Created with Inkscape (http://www.inkscape.org/) -->

<svg
   width="1350.0881"
   height="446.38962"
   viewBox="0 0 357.21081 118.10725"
   version="1.1"
   id="svg1"
   inkscape:export-filename="..\..\..\privat\website_eli\images\eli_run_linkedin3.svg"
   inkscape:export-xdpi="147.8204"
   inkscape:export-ydpi="147.8204"
   inkscape:version="1.3 (0e150ed6c4, 2023-07-21)"
   sodipodi:docname="likedin.svg"
   xml:space="preserve"
   xmlns:inkscape="http://www.inkscape.org/namespaces/inkscape"
   xmlns:sodipodi="http://sodipodi.sourceforge.net/DTD/sodipodi-0.dtd"
   xmlns:xlink="http://www.w3.org/1999/xlink"
   xmlns="http://www.w3.org/2000/svg"
   xmlns:svg="http://www.w3.org/2000/svg"><sodipodi:namedview
     id="namedview1"
     pagecolor="#ffffff"
     bordercolor="#000000"
     borderopacity="0.25"
     inkscape:showpageshadow="2"
     inkscape:pageopacity="0.0"
     inkscape:pagecheckerboard="0"
     inkscape:deskcolor="#d1d1d1"
     inkscape:document-units="px"
     inkscape:export-bgcolor="#ffffff00"
     inkscape:zoom="0.80711279"
     inkscape:cx="440.45889"
     inkscape:cy="183.98915"
     inkscape:window-width="1920"
     inkscape:window-height="1017"
     inkscape:window-x="-8"
     inkscape:window-y="-8"
     inkscape:window-maximized="1"
     inkscape:current-layer="g744" /><defs
     id="defs1"><inkscape:path-effect
       effect="spiro"
       id="path-effect2"
       is_visible="true"
       lpeversion="1" /><linearGradient
       id="linearGradient18"
       inkscape:collect="always"><stop
         style="stop-color:#0f61b3;stop-opacity:1;"
         offset="0"
         id="stop18" /><stop
         style="stop-color:#0f61b3;stop-opacity:0;"
         offset="1"
         id="stop19" /></linearGradient><linearGradient
       id="linearGradient15"
       inkscape:collect="always"><stop
         style="stop-color:#3c94f0;stop-opacity:1;"
         offset="0"
         id="stop15" /><stop
         style="stop-color:#0f61b3;stop-opacity:0;"
         offset="1"
         id="stop16" /></linearGradient><linearGradient
       id="linearGradient7"
       inkscape:collect="always"><stop
         style="stop-color:#eae1c7;stop-opacity:1;"
         offset="0"
         id="stop7" /><stop
         style="stop-color:#eae1c7;stop-opacity:0;"
         offset="1"
         id="stop8" /></linearGradient><linearGradient
       id="linearGradient4"
       inkscape:collect="always"><stop
         style="stop-color:#c9cbfd;stop-opacity:1;"
         offset="0"
         id="stop3" /><stop
         style="stop-color:#c9fdee;stop-opacity:0;"
         offset="1"
         id="stop4" /></linearGradient><linearGradient
       id="linearGradient1"
       inkscape:collect="always"><stop
         style="stop-color:#adadad;stop-opacity:1;"
         offset="0"
         id="stop1" /><stop
         style="stop-color:#000000;stop-opacity:0;"
         offset="1"
         id="stop2" /></linearGradient><pattern
       inkscape:collect="always"
       xlink:href="#pattern557"
       preserveAspectRatio="xMidYMid"
       id="pattern599"
       patternTransform="matrix(10.022688,0,0,6.6917153,-12.537569,26.331468)" /><pattern
       inkscape:collect="always"
       xlink:href="#pattern421"
       preserveAspectRatio="xMidYMid"
       id="pattern557"
       patternTransform="matrix(10,0,0,10,2.1521084,10.521419)" /><pattern
       inkscape:collect="always"
       xlink:href="#Polkadots-med"
       preserveAspectRatio="xMidYMid"
       id="pattern421"
       patternTransform="scale(10)" /><pattern
       patternUnits="userSpaceOnUse"
       width="10"
       height="10"
       patternTransform="translate(0,0) scale(10,10)"
       preserveAspectRatio="xMidYMid"
       id="Polkadots-med"
       inkscape:stockid="Polka dots, medium"
       inkscape:label="Polka dots medium"
       inkscape:collect="always"
       inkscape:isstock="true"><circle
         style="stroke:none"
         cx="2.567"
         cy="0.810"
         r="0.15"
         id="circle406" /><circle
         style="stroke:none"
         cx="3.048"
         cy="2.33"
         r="0.15"
         id="circle408" /><circle
         style="stroke:none"
         cx="4.418"
         cy="2.415"
         r="0.15"
         id="circle410" /><circle
         style="stroke:none"
         cx="1.844"
         cy="3.029"
         r="0.15"
         id="circle412" /><circle
         style="stroke:none"
         cx="6.08"
         cy="1.363"
         r="0.15"
         id="circle414" /><circle
         style="stroke:none"
         cx="5.819"
         cy="4.413"
         r="0.15"
         id="circle416" /><circle
         style="stroke:none"
         cx="4.305"
         cy="4.048"
         r="0.15"
         id="circle418" /><circle
         style="stroke:none"
         cx="5.541"
         cy="3.045"
         r="0.15"
         id="circle420" /><circle
         style="stroke:none"
         cx="4.785"
         cy="5.527"
         r="0.15"
         id="circle422" /><circle
         style="stroke:none"
         cx="2.667"
         cy="5.184"
         r="0.15"
         id="circle424" /><circle
         style="stroke:none"
         cx="7.965"
         cy="1.448"
         r="0.15"
         id="circle426" /><circle
         style="stroke:none"
         cx="7.047"
         cy="5.049"
         r="0.15"
         id="circle428" /><circle
         style="stroke:none"
         cx="4.340"
         cy="0.895"
         r="0.15"
         id="circle430" /><circle
         style="stroke:none"
         cx="7.125"
         cy="0.340"
         r="0.15"
         id="circle432" /><circle
         style="stroke:none"
         cx="9.550"
         cy="1.049"
         r="0.15"
         id="circle434" /><circle
         style="stroke:none"
         cx="7.006"
         cy="2.689"
         r="0.15"
         id="circle436" /><circle
         style="stroke:none"
         cx="8.909"
         cy="2.689"
         r="0.15"
         id="circle438" /><circle
         style="stroke:none"
         cx="9.315"
         cy="4.407"
         r="0.15"
         id="circle440" /><circle
         style="stroke:none"
         cx="7.820"
         cy="3.870"
         r="0.15"
         id="circle442" /><circle
         style="stroke:none"
         cx="8.270"
         cy="5.948"
         r="0.15"
         id="circle444" /><circle
         style="stroke:none"
         cx="7.973"
         cy="7.428"
         r="0.15"
         id="circle446" /><circle
         style="stroke:none"
         cx="9.342"
         cy="8.072"
         r="0.15"
         id="circle448" /><circle
         style="stroke:none"
         cx="8.206"
         cy="9.315"
         r="0.15"
         id="circle450" /><circle
         style="stroke:none"
         cx="9.682"
         cy="9.475"
         r="0.15"
         id="circle452" /><circle
         style="stroke:none"
         cx="9.688"
         cy="6.186"
         r="0.15"
         id="circle454" /><circle
         style="stroke:none"
         cx="3.379"
         cy="6.296"
         r="0.15"
         id="circle456" /><circle
         style="stroke:none"
         cx="2.871"
         cy="8.204"
         r="0.15"
         id="circle458" /><circle
         style="stroke:none"
         cx="4.59"
         cy="8.719"
         r="0.15"
         id="circle460" /><circle
         style="stroke:none"
         cx="3.181"
         cy="9.671"
         r="0.15"
         id="circle462" /><circle
         style="stroke:none"
         cx="5.734"
         cy="7.315"
         r="0.15"
         id="circle464" /><circle
         style="stroke:none"
         cx="6.707"
         cy="6.513"
         r="0.15"
         id="circle466" /><circle
         style="stroke:none"
         cx="5.730"
         cy="9.670"
         r="0.15"
         id="circle468" /><circle
         style="stroke:none"
         cx="6.535"
         cy="8.373"
         r="0.15"
         id="circle470" /><circle
         style="stroke:none"
         cx="4.37"
         cy="7.154"
         r="0.15"
         id="circle472" /><circle
         style="stroke:none"
         cx="0.622"
         cy="7.25"
         r="0.15"
         id="circle474" /><circle
         style="stroke:none"
         cx="0.831"
         cy="5.679"
         r="0.15"
         id="circle476" /><circle
         style="stroke:none"
         cx="1.257"
         cy="8.519"
         r="0.15"
         id="circle478" /><circle
         style="stroke:none"
         cx="1.989"
         cy="6.877"
         r="0.15"
         id="circle480" /><circle
         style="stroke:none"
         cx="0.374"
         cy="3.181"
         r="0.15"
         id="circle482" /><circle
         style="stroke:none"
         cx="1.166"
         cy="1.664"
         r="0.15"
         id="circle484" /><circle
         style="stroke:none"
         cx="1.151"
         cy="0.093"
         r="0.15"
         id="circle486" /><circle
         style="stroke:none"
         cx="1.151"
         cy="10.093"
         r="0.15"
         id="circle488" /><circle
         style="stroke:none"
         cx="1.302"
         cy="4.451"
         r="0.15"
         id="circle490" /><circle
         style="stroke:none"
         cx="3.047"
         cy="3.763"
         r="0.15"
         id="circle492" /></pattern><inkscape:path-effect
       effect="spiro"
       id="path-effect587"
       is_visible="true"
       lpeversion="1" /><linearGradient
       inkscape:collect="always"
       xlink:href="#linearGradient4"
       id="linearGradient589"
       gradientUnits="userSpaceOnUse"
       x1="307.85416"
       y1="151.45464"
       x2="316.37674"
       y2="151.45464" /><linearGradient
       id="linearGradient407"
       inkscape:collect="always"><stop
         style="stop-color:#c9e3fd;stop-opacity:1;"
         offset="0"
         id="stop407" /><stop
         style="stop-color:#c9effd;stop-opacity:0;"
         offset="1"
         id="stop408" /></linearGradient><linearGradient
       inkscape:collect="always"
       xlink:href="#linearGradient407"
       id="linearGradient591"
       gradientUnits="userSpaceOnUse"
       x1="316.68619"
       y1="145.89531"
       x2="323.85989"
       y2="145.89531" /><inkscape:path-effect
       effect="spiro"
       id="path-effect696"
       is_visible="true"
       lpeversion="1" /><radialGradient
       inkscape:collect="always"
       xlink:href="#linearGradient699"
       id="radialGradient700"
       cx="172.17848"
       cy="158.85222"
       fx="172.17848"
       fy="158.85222"
       r="4.5398207"
       gradientTransform="matrix(0.83793113,0,0,0.81698279,-31.947783,-24.395982)"
       gradientUnits="userSpaceOnUse" /><linearGradient
       id="linearGradient699"
       inkscape:collect="always"><stop
         style="stop-color:#603725;stop-opacity:1;"
         offset="0"
         id="stop699" /><stop
         style="stop-color:#603725;stop-opacity:0;"
         offset="1"
         id="stop700" /></linearGradient><filter
       inkscape:collect="always"
       style="color-interpolation-filters:sRGB"
       id="filter410"
       x="-0.11841667"
       y="-0.12908484"
       width="1.2368333"
       height="1.2581697"><feGaussianBlur
         inkscape:collect="always"
         stdDeviation="1.0368434"
         id="feGaussianBlur410" /></filter><linearGradient
       inkscape:collect="always"
       xlink:href="#linearGradient1"
       id="linearGradient2"
       x1="291.72101"
       y1="155.77687"
       x2="298.89471"
       y2="155.77687"
       gradientUnits="userSpaceOnUse" /><radialGradient
       inkscape:collect="always"
       xlink:href="#linearGradient7"
       id="radialGradient8"
       cx="267.11938"
       cy="144.10129"
       fx="267.11938"
       fy="144.10129"
       r="4.6273656"
       gradientTransform="matrix(0.51525224,2.9654342,-1.680466,0.29142993,371.6429,-690.01911)"
       gradientUnits="userSpaceOnUse" /><linearGradient
       inkscape:collect="always"
       xlink:href="#linearGradient15"
       id="linearGradient16"
       x1="175.9883"
       y1="114.43439"
       x2="162.06705"
       y2="117.56369"
       gradientUnits="userSpaceOnUse"
       gradientTransform="matrix(0.98198202,0,0,0.99214667,2.7466351,0.99608241)" /><linearGradient
       inkscape:collect="always"
       xlink:href="#linearGradient18"
       id="linearGradient19"
       x1="208.4147"
       y1="118.82818"
       x2="219.24289"
       y2="118.82818"
       gradientUnits="userSpaceOnUse" /><inkscape:path-effect
       effect="spiro"
       id="path-effect2-6"
       is_visible="true"
       lpeversion="1" /><inkscape:path-effect
       effect="spiro"
       id="path-effect2-5"
       is_visible="true"
       lpeversion="1" /><inkscape:path-effect
       effect="spiro"
       id="path-effect2-5-9"
       is_visible="true"
       lpeversion="1" /><filter
       inkscape:collect="always"
       style="color-interpolation-filters:sRGB"
       id="filter31"
       x="-0.15435731"
       y="-0.17773954"
       width="1.3087146"
       height="1.3554791"><feGaussianBlur
         inkscape:collect="always"
         stdDeviation="1.6265563"
         id="feGaussianBlur31" /></filter><filter
       inkscape:collect="always"
       style="color-interpolation-filters:sRGB"
       id="filter32"
       x="-0.11532671"
       y="-0.14056978"
       width="1.2306534"
       height="1.2811396"><feGaussianBlur
         inkscape:collect="always"
         stdDeviation="1.2625694"
         id="feGaussianBlur32" /></filter><linearGradient
       inkscape:collect="always"
       xlink:href="#linearGradient15"
       id="linearGradient32"
       gradientUnits="userSpaceOnUse"
       gradientTransform="matrix(0.98198202,0,0,0.99214667,1.3545106,2.2709819)"
       x1="168.84088"
       y1="118.81504"
       x2="162.06705"
       y2="117.56369" /><filter
       inkscape:collect="always"
       style="color-interpolation-filters:sRGB"
       id="filter33"
       x="-0.13207168"
       y="-0.12176958"
       width="1.2641434"
       height="1.2435392"><feGaussianBlur
         inkscape:collect="always"
         stdDeviation="2.402444"
         id="feGaussianBlur33" /></filter><filter
       inkscape:collect="always"
       style="color-interpolation-filters:sRGB"
       id="filter34"
       x="-0.10283282"
       y="-0.12030026"
       width="1.2056656"
       height="1.2406005"><feGaussianBlur
         inkscape:collect="always"
         stdDeviation="2.4569816"
         id="feGaussianBlur34" /></filter><filter
       inkscape:collect="always"
       style="color-interpolation-filters:sRGB"
       id="filter35"
       x="-0.011633756"
       y="-0.016708019"
       width="1.0232675"
       height="1.033416"><feGaussianBlur
         inkscape:collect="always"
         stdDeviation="0.3465711"
         id="feGaussianBlur35" /></filter><filter
       inkscape:collect="always"
       style="color-interpolation-filters:sRGB"
       id="filter36"
       x="-0.016365721"
       y="-0.024586426"
       width="1.0327314"
       height="1.0491729"><feGaussianBlur
         inkscape:collect="always"
         stdDeviation="0.50464613"
         id="feGaussianBlur36" /></filter></defs><g
     inkscape:label="Layer 1"
     inkscape:groupmode="layer"
     id="layer1"
     transform="translate(90.654171,42.704153)"><g
       id="g744"
       transform="matrix(0.99904813,0,0,1,-75.451416,-93.3406)"><g
         id="g38"
         transform="matrix(1.03253,0,0,1.1565336,-5.5525629,-12.727994)"><rect
           style="fill:#aaaaaa;fill-opacity:0.638202;fill-rule:evenodd;stroke:none;stroke-width:0.748874;stroke-miterlimit:0;stroke-opacity:0.635955"
           id="rect37"
           width="354.54962"
           height="106.64984"
           x="-13.718429"
           y="50.378834"
           ry="1.0163314" /><g
           id="g644"
           transform="matrix(1.0636697,0,0,1.1844286,-212.92846,-65.385926)"
           style="mix-blend-mode:normal;fill:#dcdad5;fill-opacity:0.539024;stroke:none"><g
             id="g643"
             transform="translate(230.20344,-21.175018)"
             style="fill:#dcdad5;fill-opacity:0.539024;stroke:none"><ellipse
               style="fill:#dcdad5;fill-opacity:0.539024;fill-rule:evenodd;stroke:none;stroke-width:0.351885;stroke-miterlimit:0;stroke-dasharray:none;stroke-opacity:1"
               id="ellipse634"
               cx="143.92126"
               cy="163.00319"
               rx="14.04371"
               ry="12.883073" /><ellipse
               style="fill:#dcdad5;fill-opacity:0.539024;fill-rule:evenodd;stroke:none;stroke-width:0.26327;stroke-miterlimit:0;stroke-dasharray:none;stroke-opacity:1;filter:url(#filter410)"
               id="ellipse635"
               cx="143.54207"
               cy="162.90414"
               rx="10.507069"
               ry="9.6387157"
               transform="matrix(1.1951984,0,0,1.1951984,-28.019184,-31.798631)" /><ellipse
               style="fill:#dcdad5;fill-opacity:0.539024;fill-rule:evenodd;stroke:none;stroke-width:0.26327;stroke-miterlimit:0;stroke-dasharray:none;stroke-opacity:1;filter:url(#filter410)"
               id="ellipse636"
               cx="109.25872"
               cy="160.4669"
               rx="10.507069"
               ry="9.6387157"
               transform="matrix(0.49748077,0,0,0.49748077,89.736241,81.990389)" /><ellipse
               style="fill:#dcdad5;fill-opacity:0.539024;fill-rule:evenodd;stroke:none;stroke-width:0.26327;stroke-miterlimit:0;stroke-dasharray:none;stroke-opacity:1;filter:url(#filter410)"
               id="ellipse637"
               cx="143.54207"
               cy="162.90414"
               rx="10.507069"
               ry="9.6387157"
               transform="matrix(0.84027408,0,0,0.84027408,22.927387,26.020011)" /><ellipse
               style="fill:#dcdad5;fill-opacity:0.539024;fill-rule:evenodd;stroke:none;stroke-width:0.26327;stroke-miterlimit:0;stroke-dasharray:none;stroke-opacity:1;filter:url(#filter410)"
               id="ellipse638"
               cx="143.54207"
               cy="162.90414"
               rx="10.507069"
               ry="9.6387157"
               transform="matrix(0.46565436,0,0,0.46565436,76.701077,87.047116)" /><ellipse
               style="fill:#dcdad5;fill-opacity:0.539024;fill-rule:evenodd;stroke:none;stroke-width:0.26327;stroke-miterlimit:0;stroke-dasharray:none;stroke-opacity:1;filter:url(#filter410)"
               id="ellipse639"
               cx="143.54207"
               cy="162.90414"
               rx="10.507069"
               ry="9.6387157"
               transform="matrix(0.12124782,0,0,0.12124782,126.13791,143.15237)" /><ellipse
               style="fill:#dcdad5;fill-opacity:0.539024;fill-rule:evenodd;stroke:none;stroke-width:0.26327;stroke-miterlimit:0;stroke-dasharray:none;stroke-opacity:1;filter:url(#filter410)"
               id="ellipse640"
               cx="143.54207"
               cy="162.90414"
               rx="10.507069"
               ry="9.6387157"
               transform="matrix(0.3414512,0,0,0.3414512,94.529456,107.28033)" /><ellipse
               style="fill:#dcdad5;fill-opacity:0.539024;fill-rule:evenodd;stroke:none;stroke-width:0.26327;stroke-miterlimit:0;stroke-dasharray:none;stroke-opacity:1;filter:url(#filter410)"
               id="ellipse641"
               cx="143.54207"
               cy="162.90414"
               rx="10.507069"
               ry="9.6387157"
               transform="matrix(0.23104839,0,0,0.23104839,110.3769,125.26541)" /><ellipse
               style="fill:#dcdad5;fill-opacity:0.539024;fill-rule:evenodd;stroke:none;stroke-width:0.26327;stroke-miterlimit:0;stroke-dasharray:none;stroke-opacity:1;filter:url(#filter410)"
               id="ellipse642"
               cx="143.54207"
               cy="162.90414"
               rx="10.507069"
               ry="9.6387157"
               transform="matrix(0.14724682,0,0,0.14724682,122.40595,138.91703)" /><ellipse
               style="fill:#dcdad5;fill-opacity:0.539024;fill-rule:evenodd;stroke:none;stroke-width:0.26327;stroke-miterlimit:0;stroke-dasharray:none;stroke-opacity:1;filter:url(#filter410)"
               id="ellipse643"
               cx="143.54207"
               cy="162.90414"
               rx="10.507069"
               ry="9.6387157"
               transform="matrix(0.07364495,0,0,0.07364495,132.97092,150.90708)" /><ellipse
               style="fill:#dcdad5;fill-opacity:0.539024;fill-rule:evenodd;stroke:none;stroke-width:0.26327;stroke-miterlimit:0;stroke-dasharray:none;stroke-opacity:1;filter:url(#filter410)"
               id="ellipse36"
               cx="143.54207"
               cy="162.90414"
               rx="10.507069"
               ry="9.6387157"
               transform="matrix(1.1951984,0,0,1.1951984,-28.019184,-31.798631)" /></g></g><path
           style="opacity:1;fill:#22507c;fill-opacity:1;fill-rule:evenodd;stroke:none;stroke-width:0.12606;stroke-miterlimit:0;stroke-opacity:1"
           d="m 206.35486,126.37618 c 0,0 3.73498,-12.80441 8.8944,-12.66263 5.69714,0.15656 5.67162,9.90547 9.03715,14.50056 2.26832,3.09701 4.30294,6.60143 7.48096,8.75697 3.58773,2.43343 12.31336,4.194 12.31336,4.194 l 14.30473,2.53985 48.29295,3.44405 -70.31526,-0.0562 v 1.8544 l -24.82622,-6.0268 -8.58477,-18.31219 z"
           id="path11"
           sodipodi:nodetypes="caaacccccccc" /><path
           style="opacity:1;fill:#1b5184;fill-opacity:1;fill-rule:evenodd;stroke:none;stroke-width:0.137181;stroke-miterlimit:0;stroke-opacity:1"
           d="m 147.28951,122.68046 c 5.25662,-7.30974 6.91015,-19.06534 16.66423,-17.65736 0.64693,0.0934 2.33754,1.85612 3.79095,4.44358 0.80914,1.44048 1.54475,3.13657 1.98584,4.94253 2.05036,8.39487 8.93582,14.32522 8.93582,14.32522 l 3.71906,7.06292 0.75745,12.86467 -2.01991,2.52247 0.25249,1.009 v 2.01798 l -27.01625,-6.55844 -27.52122,2.77472 c 0,0 10.55644,-13.98736 20.45154,-27.74729 z"
           id="path12"
           sodipodi:nodetypes="ssssccccccccs" /><path
           style="opacity:1;fill:url(#linearGradient19);fill-rule:evenodd;stroke:none;stroke-width:0.12606;stroke-miterlimit:0;stroke-opacity:1"
           d="m 210.46791,132.4835 c 0,0 16.33268,25.1136 16.07627,10.33825 -0.0125,-0.71874 -10.07035,-13.22845 -12.30885,-21.03702 -0.42805,-1.49318 -0.72002,-3.21876 -0.13471,-4.65769 0.33105,-0.81386 1.02521,-1.69874 1.89398,-1.83451 1.13698,-0.17768 3.09418,1.52999 3.09418,1.52999 0,0 -1.71124,-2.78069 -3.14991,-3.09407 -1.07821,-0.23486 -2.34651,0.56299 -3.11265,1.12662 -0.67187,0.49427 -1.50655,1.46451 -2.21565,2.45998 -0.42867,0.60181 -1.53962,1.59509 -1.53962,1.59509 l -5.52869,8.24196 z"
           id="path16"
           sodipodi:nodetypes="csaaacassccc" /><path
           id="path561"
           style="fill:#0a66c2;fill-opacity:1;fill-rule:evenodd;stroke:#603725;stroke-width:0;stroke-miterlimit:0"
           d="m 246.38992,94.7534 c -0.025,0.16406 -0.0397,0.32862 -0.032,0.49333 0.0247,0.52266 0.21129,1.04537 0.5848,1.4995 0.37349,0.45413 0.93839,0.83671 1.62296,1.05491 0.73478,0.2342 1.57236,0.27198 2.37686,0.21606 0.80448,-0.0559 1.58959,-0.20046 2.38023,-0.31784 0.79063,-0.11738 1.60085,-0.20804 2.40551,-0.15327 0.80466,0.0548 1.6117,0.26845 2.16001,0.68092 0.3591,0.27013 0.59058,0.61158 0.74828,0.96248 0.15771,0.35091 0.24616,0.71468 0.35224,1.07481 0.1061,0.36013 0.23194,0.72049 0.45896,1.05257 0.22702,0.33209 0.56322,0.63687 1.01625,0.82717 0.51906,0.21805 1.16376,0.27051 1.75778,0.18485 0.59403,-0.0857 1.13862,-0.3018 1.59376,-0.5803 0.91028,-0.55699 1.45634,-1.3375 2.0454,-2.07395 0.78855,-0.98583 1.71891,-1.94677 3.01953,-2.62227 0.6503,-0.33775 1.38909,-0.59927 2.17855,-0.73162 0.78947,-0.13235 1.63086,-0.13243 2.4072,0.0331 0.85883,0.18319 1.6055,0.55817 2.28136,0.96912 0.67585,0.41095 1.29959,0.86453 2.0117,1.24483 1.04323,0.55712 2.27078,0.94907 3.56276,1.12356 1.29198,0.17448 2.64653,0.12974 3.9032,-0.14196 1.25666,-0.27169 2.41208,-0.77087 3.30378,-1.44295 0.8917,-0.67208 1.51573,-1.51623 1.7634,-2.41363 0.0853,-0.3093 0.12207,-0.6245 0.11742,-0.93947 h -14.52019 c -0.11819,0.0414 -0.23541,0.0842 -0.3601,0.11621 -0.35669,0.0917 -0.73715,0.14131 -1.11736,0.13416 -0.38021,-0.007 -0.76021,-0.0719 -1.09434,-0.19811 -0.0423,-0.016 -0.082,-0.0345 -0.12246,-0.0523 h -9.22824 c -0.49414,0.31149 -1.09237,0.54364 -1.73362,0.6735 -0.85261,0.17269 -1.7771,0.1657 -2.62853,-0.01 -0.67085,-0.13824 -1.28693,-0.3794 -1.8561,-0.66375 z m 33.63613,0.0706 h 7.16652 a 3.8992473,2.6392136 0 0 1 0.31347,1.03464 3.8992473,2.6392136 0 0 1 -3.89926,2.63903 3.8992473,2.6392136 0 0 1 -3.89926,-2.63903 3.8992473,2.6392136 0 0 1 0.31853,-1.03464 z" /><path
           id="path560"
           style="fill:#254d72;fill-opacity:1;fill-rule:evenodd;stroke:url(#pattern599);stroke-width:0;stroke-miterlimit:0;stroke-opacity:1"
           d="m -13.791097,158.75069 104.549503,-1.3908 -0.239803,-0.45681 c -0.06167,-0.11748 0.239803,0.0714 0.239803,0.16011 v 0.2967 l 220.201334,-0.12517 c 0.20235,-1.2e-4 0.3713,0.0593 0.53089,0.12517 h 29.7892 c 0,0 1.3276,-68.010578 0,-51.04676 -2.59956,33.21685 -22.50261,37.81127 -25.33705,38.08933 -2.83444,0.27806 -17.13699,-9.03676 -22.0448,-7.30903 -20.17651,7.10286 -18.42294,5.34185 -31.07897,5.36491 -3.54077,0.006 -20.12536,0.66294 -23.46813,-0.11647 -2.74363,-0.63974 -9.69365,1.01674 -13.21414,-3.13201 -4.07393,-4.80096 -8.91194,-4.82644 -11.84347,-7.90613 -2.76443,-2.90415 -9.29763,-16.97871 -14.67931,-22.67774 -1.56844,-1.66092 -3.25138,-1.97411 -4.45151,-1.88096 -5.31811,0.41277 -12.70994,13.16108 -17.13328,18.84796 -0.83016,1.0673 -13.1799,16.43149 -18.87357,16.54213 -12.74552,0.24767 -24.59314,-6.99666 -32.58577,-11.88379 -6.18103,-3.77942 -7.76686,2.66639 -17.35047,3.25457 -6.14259,0.37699 -14.83599,-5.26303 -19.027275,-8.27226 C 85.768413,122.0576 55.092095,85.761825 34.179314,91.757325 27.246604,93.744869 14.869323,126.5883 6.6347212,128.93655 c -5.81911806,1.65944 -21.1674752,8.08827 -21.3340902,14.91594 -0.322416,13.21221 0.908272,14.8982 0.908272,14.8982 z"
           sodipodi:nodetypes="ccsscsccszsscssssssssssssc" /><path
           style="fill:#0a66c2;fill-opacity:1;fill-rule:evenodd;stroke:#603725;stroke-width:0;stroke-miterlimit:0"
           d="m 273.23492,150.01976 c 1.8511,-0.43331 3.43345,-1.62643 4.80116,-2.94691 1.36771,-1.32048 2.58563,-2.79966 4.05263,-4.00888 0.7335,-0.60462 1.52969,-1.14035 2.39802,-1.5271 0.86833,-0.38676 1.81172,-0.62192 2.76228,-0.61677 0.95055,0.005 1.9081,0.25785 2.70115,0.78192 0.79305,0.52407 1.41152,1.32726 1.65059,2.24727 0.27172,1.04565 0.046,2.17072 -0.40977,3.15027 -0.45574,0.97955 -1.12845,1.83931 -1.79438,2.69005 -0.66593,0.85073 -1.33717,1.71193 -1.78931,2.69315 -0.45214,0.98122 -0.67171,2.10819 -0.3923,3.15181 0.19556,0.73045 0.63049,1.38912 1.2013,1.88508 0.57082,0.49596 1.27344,0.83167 2.0102,1.00191 1.47352,0.34048 3.03917,0.0202 4.41216,-0.61391 2.34855,-1.0847 4.17801,-3.01142 6.10157,-4.74121 0.96178,-0.8649 1.96533,-1.6933 3.08028,-2.34899 1.11496,-0.6557 2.34983,-1.13628 3.63721,-1.26162 2.13718,-0.20807 4.33839,0.61765 5.85928,2.13347 1.52089,1.51582 2.35055,3.68324 2.2983,5.82989 -0.0291,1.19372 -0.32334,2.38885 -0.91672,3.42505 -0.59338,1.0362 -1.49271,1.90686 -2.57938,2.4018 -1.16498,0.5306 -2.49049,0.61475 -3.76419,0.48662 -1.27369,-0.12812 -2.51694,-0.45778 -3.76898,-0.72444 -1.25204,-0.26666 -2.53514,-0.47172 -3.80904,-0.34567 -1.2739,0.12605 -2.55067,0.6142 -3.41916,1.55464 -0.56871,0.61583 -0.93661,1.39356 -1.18715,2.19351 -0.25054,0.79995 -0.39114,1.62927 -0.55966,2.45042 -0.16852,0.82115 -0.36794,1.64339 -0.72676,2.40098 -0.35881,0.75758 -0.88951,1.4532 -1.60522,1.88959 -0.82166,0.501 -1.84362,0.6249 -2.78663,0.43294 -0.94302,-0.19197 -1.80907,-0.6828 -2.5322,-1.31779 -1.44626,-1.26997 -2.31036,-3.05547 -3.22721,-4.74777 -1.23438,-2.2784 -2.67295,-4.52099 -4.7362,-6.08872 -1.03162,-0.78387 -2.21244,-1.38577 -3.47582,-1.67312 -1.26338,-0.28735 -2.61088,-0.25133 -3.83015,0.18693 -1.33553,0.48005 -2.45725,1.40877 -3.50473,2.3663 -1.04749,0.95754 -2.06522,1.9723 -3.29326,2.68364 -2.27711,1.31901 -5.19689,1.44382 -7.59114,0.35177 -2.39426,-1.09206 -4.20798,-3.36374 -4.773,-5.93391 -0.56502,-2.57017 0.12096,-5.3794 1.78301,-7.41965 1.66205,-2.04025 4.2595,-3.27739 6.8908,-3.31339 1.83071,-0.025 3.61798,0.495 5.40001,0.91511 1.78203,0.42011 3.64972,0.74303 5.43241,0.32573 z"
           id="path573"
           transform="matrix(0.54318525,0,0,0.54318525,135.98181,18.921579)"
           sodipodi:nodetypes="ssssssssssssss"
           inkscape:original-d="m 273.23492,150.01976 c 2.97818,0.19423 15.64665,-5.29355 18.36583,-6.07047 2.7192,-0.77691 -8.27032,10.84362 -4.38576,11.68528 3.88459,0.84166 6.39353,-0.51086 7.62366,2.27308 1.2301,2.78394 8.54604,-5.56788 12.81906,-8.35182 4.27302,-2.78394 5.4384,5.30891 8.15758,7.96336 2.7192,2.65446 -2.33074,3.88457 -3.4961,5.82685 -1.16538,1.94229 -9.84091,0.64743 -14.76137,0.97115 -4.92043,0.32371 -2.71917,5.95633 -4.07879,8.9345 -1.35959,2.97817 -5.69735,-3.75508 -8.54604,-5.63262 -2.84869,-1.87754 -8.02809,-5.04994 -12.04217,-7.57491 -4.01404,-2.52497 -4.53199,3.36663 -6.79799,5.04994 -2.26599,1.68331 -2.46022,-10.87679 -3.69033,-16.31518 -1.23011,-5.4384 7.85425,1.04661 10.83242,1.24084 z"
           inkscape:path-effect="#path-effect587" /><ellipse
           style="fill:url(#linearGradient2);fill-opacity:1;fill-rule:evenodd;stroke:#603725;stroke-width:0;stroke-miterlimit:0"
           id="ellipse573"
           cx="295.30786"
           cy="155.77687"
           rx="3.5868473"
           ry="3.4971759"
           transform="translate(-13.956174,-49.296273)" /><ellipse
           style="fill:#9bd7fe;fill-opacity:0.735577;fill-rule:evenodd;stroke:#603725;stroke-width:0;stroke-miterlimit:0"
           id="ellipse574"
           cx="313.90887"
           cy="159.76414"
           rx="2.5107932"
           ry="2.4480233"
           transform="translate(-13.956174,-49.296273)" /><ellipse
           style="fill:url(#linearGradient589);fill-opacity:1;fill-rule:evenodd;stroke:#603725;stroke-width:0;stroke-miterlimit:0"
           id="ellipse575"
           cx="312.11545"
           cy="151.45464"
           rx="4.2612967"
           ry="4.1547647"
           transform="translate(-13.956174,-49.296273)" /><ellipse
           style="opacity:0.7;fill:#0a66c2;fill-opacity:1;fill-rule:evenodd;stroke:#603725;stroke-width:0;stroke-miterlimit:0"
           id="ellipse576"
           cx="271.45602"
           cy="146.62015"
           rx="3.5868473"
           ry="3.4971759"
           transform="translate(-13.956174,-49.296273)" /><path
           id="path576"
           style="fill:url(#radialGradient8);fill-opacity:1;fill-rule:evenodd;stroke:#603725;stroke-width:0;stroke-miterlimit:0"
           d="m 262.49202,137.8486 c -0.0529,0.26622 -4.86932,1.55793 0,4.4006 -2.17793,2.2938 2.07151,4.51173 4.62711,4.51187 2.5558,1.3e-4 4.62772,-2.01997 4.62762,-4.51187 -4.1e-4,-0.27091 -0.0259,-0.54124 -0.076,-0.8077 z"
           transform="translate(-13.956174,-49.296273)"
           sodipodi:nodetypes="ccsccc" /><ellipse
           style="fill:#e78935;fill-opacity:1;fill-rule:evenodd;stroke:#606060;stroke-width:0;stroke-miterlimit:0;stroke-opacity:0.635955"
           id="ellipse577"
           cx="283.68719"
           cy="144.10188"
           rx="3.5868473"
           ry="3.4971759"
           transform="translate(-13.956174,-49.296273)" /><ellipse
           style="fill:url(#linearGradient591);fill-opacity:1;fill-rule:evenodd;stroke:#603725;stroke-width:0;stroke-miterlimit:0"
           id="ellipse578"
           cx="320.27304"
           cy="145.89531"
           rx="3.5868473"
           ry="3.4971759"
           transform="translate(-13.956174,-49.296273)" /><ellipse
           style="fill:#e0dcd1;fill-opacity:1;fill-rule:evenodd;stroke:#603725;stroke-width:0;stroke-miterlimit:0"
           id="ellipse580"
           cx="271.09357"
           cy="148.3689"
           rx="2.5107932"
           ry="2.4480233"
           transform="translate(-13.956174,-49.296273)" /><path
           style="fill:#0a66c2;fill-opacity:1;fill-rule:evenodd;stroke:#603725;stroke-width:0;stroke-miterlimit:0"
           d="m 273.23492,150.01976 c 1.8511,-0.43331 3.43345,-1.62643 4.80116,-2.94691 1.36771,-1.32048 2.58563,-2.79966 4.05263,-4.00888 0.7335,-0.60462 1.52969,-1.14035 2.39802,-1.5271 0.86833,-0.38676 1.81172,-0.62192 2.76228,-0.61677 0.95055,0.005 1.9081,0.25785 2.70115,0.78192 0.79305,0.52407 1.41152,1.32726 1.65059,2.24727 0.27172,1.04565 0.046,2.17072 -0.40977,3.15027 -0.45574,0.97955 -1.12845,1.83931 -1.79438,2.69005 -0.66593,0.85073 -1.33717,1.71193 -1.78931,2.69315 -0.45214,0.98122 -0.67171,2.10819 -0.3923,3.15181 0.19556,0.73045 0.63049,1.38912 1.2013,1.88508 0.57082,0.49596 1.27344,0.83167 2.0102,1.00191 1.47352,0.34048 3.03917,0.0202 4.41216,-0.61391 2.34855,-1.0847 4.17801,-3.01142 6.10157,-4.74121 0.96178,-0.8649 1.96533,-1.6933 3.08028,-2.34899 1.11496,-0.6557 2.34983,-1.13628 3.63721,-1.26162 2.13718,-0.20807 4.33839,0.61765 5.85928,2.13347 1.52089,1.51582 2.35055,3.68324 2.2983,5.82989 -0.0291,1.19372 -0.32334,2.38885 -0.91672,3.42505 -0.59338,1.0362 -1.49271,1.90686 -2.57938,2.4018 -1.16498,0.5306 -2.49049,0.61475 -3.76419,0.48662 -1.27369,-0.12812 -2.51694,-0.45778 -3.76898,-0.72444 -1.25204,-0.26666 -2.53514,-0.47172 -3.80904,-0.34567 -1.2739,0.12605 -2.55067,0.6142 -3.41916,1.55464 -0.56871,0.61583 -0.93661,1.39356 -1.18715,2.19351 -0.25054,0.79995 -0.39114,1.62927 -0.55966,2.45042 -0.16852,0.82115 -0.36794,1.64339 -0.72676,2.40098 -0.35881,0.75758 -0.88951,1.4532 -1.60522,1.88959 -0.82166,0.501 -1.84362,0.6249 -2.78663,0.43294 -0.94302,-0.19197 -1.80907,-0.6828 -2.5322,-1.31779 -1.44626,-1.26997 -2.31036,-3.05547 -3.22721,-4.74777 -1.23438,-2.2784 -2.67295,-4.52099 -4.7362,-6.08872 -1.03162,-0.78387 -2.21244,-1.38577 -3.47582,-1.67312 -1.26338,-0.28735 -2.61088,-0.25133 -3.83015,0.18693 -1.33553,0.48005 -2.45725,1.40877 -3.50473,2.3663 -1.04749,0.95754 -2.06522,1.9723 -3.29326,2.68364 -2.27711,1.31901 -5.19689,1.44382 -7.59114,0.35177 -2.39426,-1.09206 -4.20798,-3.36374 -4.773,-5.93391 -0.56502,-2.57017 0.12096,-5.3794 1.78301,-7.41965 1.66205,-2.04025 4.2595,-3.27739 6.8908,-3.31339 1.83071,-0.025 3.61798,0.495 5.40001,0.91511 1.78203,0.42011 3.64972,0.74303 5.43241,0.32573 z"
           id="path695"
           transform="matrix(0.54318525,0,0,0.54318525,-40.573156,15.21165)"
           sodipodi:nodetypes="ssssssssssssss"
           inkscape:original-d="m 273.23492,150.01976 c 2.97818,0.19423 15.64665,-5.29355 18.36583,-6.07047 2.7192,-0.77691 -8.27032,10.84362 -4.38576,11.68528 3.88459,0.84166 6.39353,-0.51086 7.62366,2.27308 1.2301,2.78394 8.54604,-5.56788 12.81906,-8.35182 4.27302,-2.78394 5.4384,5.30891 8.15758,7.96336 2.7192,2.65446 -2.33074,3.88457 -3.4961,5.82685 -1.16538,1.94229 -9.84091,0.64743 -14.76137,0.97115 -4.92043,0.32371 -2.71917,5.95633 -4.07879,8.9345 -1.35959,2.97817 -5.69735,-3.75508 -8.54604,-5.63262 -2.84869,-1.87754 -8.02809,-5.04994 -12.04217,-7.57491 -4.01404,-2.52497 -4.53199,3.36663 -6.79799,5.04994 -2.26599,1.68331 -2.46022,-10.87679 -3.69033,-16.31518 -1.23011,-5.4384 7.85425,1.04661 10.83242,1.24084 z"
           inkscape:path-effect="#path-effect696" /><ellipse
           style="fill:#80aecb;fill-opacity:1;fill-rule:evenodd;stroke:#603725;stroke-width:0;stroke-miterlimit:0"
           id="ellipse696"
           cx="119.66552"
           cy="97.053551"
           rx="2.5107932"
           ry="2.4480233" /><ellipse
           style="fill:#d2d4c6;fill-opacity:1;fill-rule:evenodd;stroke:#603725;stroke-width:0;stroke-miterlimit:0"
           id="ellipse697"
           cx="98.715454"
           cy="97.630005"
           rx="4.5398202"
           ry="4.4263244" /><ellipse
           style="fill:#39638c;fill-opacity:1;fill-rule:evenodd;stroke:url(#radialGradient700);stroke-width:0;stroke-miterlimit:0"
           id="ellipse698"
           cx="112.32593"
           cy="105.38354"
           rx="3.8040566"
           ry="3.708955" /><path
           style="opacity:1;fill:url(#linearGradient16);fill-rule:evenodd;stroke:none;stroke-width:0.124428;stroke-miterlimit:0;stroke-opacity:1"
           d="m 164.31232,105.46851 c 1.24121,0.95143 3.25934,3.66705 3.56272,4.88984 0.13267,0.53475 0.61177,0.75991 0.61177,0.75991 l 2.44173,7.04533 2.45293,4.46629 3.59287,4.37966 c -1.47188,-1.29115 -3.89806,-2.54083 -4.92134,-4.23075 0,0 -6.18561,-14.52524 -12.15279,-14.00368 -6.03792,0.52775 -3.18976,6.84878 -3.18976,6.84878 l -4.27229,-2.01203 3.75936,-6.09446 2.73408,-1.95482 2.96193,-0.68993 c 0,0 1.75999,0.0909 2.41879,0.59586 z"
           id="path15"
           sodipodi:nodetypes="sscccccscccccs" /><path
           style="opacity:1;fill:#0f61b3;fill-opacity:1;fill-rule:evenodd;stroke:none;stroke-width:0.12606;stroke-miterlimit:0;stroke-opacity:1"
           d="m 197.39429,107.15391 c 0,0 -4.2496,1.8879 -5.84783,3.50214 -2.42529,2.44958 -3.32955,6.04287 -5.22232,8.92307 -1.56706,2.38456 -5.06606,6.90058 -5.06606,6.90058 l -6.14827,8.49335 -15.81803,15.31468 -7.64303,5.66545 -11.15632,0.49173 -12.63288,-0.082 -3.23036,0.26349 34.8946,-14.60539 c 0,0 9.23035,-5.99899 13.12508,-9.83443 3.24854,-3.19909 8.36723,-10.81788 8.36723,-10.81788 0,0 3.4079,-6.01527 5.74223,-8.52318 2.24802,-2.41517 4.60293,-5.25716 7.79301,-6.10555 0.92543,-0.24612 2.84295,0.41389 2.84295,0.41389 z"
           id="path19"
           sodipodi:nodetypes="caaccccccccscaacc" /><path
           style="opacity:1;mix-blend-mode:normal;fill:#0d559e;fill-opacity:1;fill-rule:evenodd;stroke:none;stroke-width:0.12606;stroke-miterlimit:0;stroke-opacity:1;filter:url(#filter35)"
           d="m 197.26883,107.12579 c 0,0 -3.49986,1.96823 -4.77482,3.46485 -2.28983,2.68794 -2.93041,6.4434 -4.77775,9.45208 -1.49298,2.43154 -5.06606,6.90058 -5.06606,6.90058 l -6.14827,8.49335 -15.81803,15.31468 -7.64303,5.66545 -11.15632,0.49173 -12.14069,-0.61927 -3.80458,-0.5924 34.97663,-13.21218 13.12508,-9.83443 8.36723,-10.81788 c 0,0 2.9683,-4.67893 5.23469,-7.24828 4.91626,-5.57344 7.01964,-6.5835 8.37306,-7.3225 0.30278,-0.16533 1.41962,-0.0633 1.41962,-0.0633 z"
           id="path20"
           sodipodi:nodetypes="caaccccccccccsscc" /><path
           style="opacity:1;mix-blend-mode:normal;fill:#0d5196;fill-opacity:1;fill-rule:evenodd;stroke:none;stroke-width:0.12606;stroke-miterlimit:0;stroke-opacity:1;filter:url(#filter36)"
           d="m 197.97537,107.43664 c 0.0411,-0.11182 0.57221,0.27222 0.61048,0.33669 0.43366,0.7304 -4.3847,1.72733 -5.57454,3.12667 -2.28733,2.69006 -2.7819,6.50877 -4.55976,9.55894 -1.43684,2.46507 -4.90651,7.01471 -4.90651,7.01471 l -5.95191,8.63182 -15.46273,15.67267 -7.62713,4.33218 -11.49015,-0.29619 -10.49833,0.70151 -7.90676,-0.0412 37.56477,-12.96607 12.89614,-10.13223 8.11699,-11.00652 c 0,0 3.47559,-5.91811 5.58632,-8.61138 1.52834,-1.95014 8.61548,-2.09307 8.81823,-6.50355 l -0.0646,1.40618 z"
           id="path21"
           sodipodi:nodetypes="sssaccccccccccssss" /><path
           style="opacity:1;mix-blend-mode:normal;fill:#1b5184;fill-opacity:1;fill-rule:evenodd;stroke:none;stroke-width:0.12606;stroke-miterlimit:0;stroke-opacity:1;filter:url(#filter34)"
           d="m 199.04273,107.99385 c 0.44305,0.23755 -4.03555,1.95947 -5.39171,3.65413 -2.2062,2.75687 -2.31548,6.68859 -3.87359,9.85643 -1.25924,2.56017 -4.39909,7.34295 -4.39909,7.34295 l -5.32772,9.02971 -14.08578,18.22986 -6.50017,0.095 -17.73438,0.59246 23.46101,-10.44635 12.14874,-11.01567 7.31977,-11.55106 c 0,0 2.83089,-6.30685 4.92067,-9.02153 2.0125,-2.6143 4.16018,-5.49262 7.18841,-6.80575 0.60549,-0.26256 1.8861,-0.16807 1.97656,-0.11956 z"
           id="path22"
           sodipodi:nodetypes="saaccccccccaass" /><g
           id="g18"
           transform="matrix(0.72622669,0,0,0.72622669,129.90447,108.32515)"
           style="fill:#e0dcd1;fill-opacity:1;stroke:#383838;stroke-width:0.1735;stroke-dasharray:none;stroke-opacity:1"><g
             id="g17"
             transform="translate(-105.35357,-78.217046)"
             style="fill:#e0dcd1;fill-opacity:1;stroke:#383838;stroke-width:0.1735;stroke-dasharray:none;stroke-opacity:1"><path
               style="fill:#e0dcd1;fill-opacity:1;fill-rule:evenodd;stroke:#383838;stroke-width:0.1735;stroke-miterlimit:0;stroke-dasharray:none;stroke-opacity:1"
               d="m 263.37839,93.695417 c -1.43827,-0.426672 -2.91512,1.284087 -3.70059,2.561578 -1.04713,1.703047 -1.43176,5.728355 -0.8186,5.940035 0.38464,1.0002 0.90747,1.27802 1.59128,1.58119 1.22441,0.54286 2.09384,0.2406 4.01314,0.21129 1.71494,-0.0262 3.58507,0.12839 4.70484,-0.18308 0.91602,-0.2548 0.86116,0.26721 0.52029,-0.0459 -0.49805,-0.45756 -1.16008,-1.08493 -2.32105,-1.12478 -1.37314,-0.0471 -2.87199,-0.68477 -4.10468,-0.87603 -1.02512,-0.15905 -2.24343,0.60908 -4.53157,-0.15998 0.12772,-0.7221 3.36797,-4.702339 4.25812,-5.628148 0.54229,-0.564006 0.67786,-0.618426 0.8208,-1.220917 0.1751,-0.738057 -0.0675,-0.947092 -0.43197,-1.055168 z"
               id="path2"
               sodipodi:nodetypes="aacassssscssaa" /><path
               style="fill:#e0dcd1;fill-opacity:1;fill-rule:evenodd;stroke:#383838;stroke-width:0.187653;stroke-miterlimit:0;stroke-dasharray:none;stroke-opacity:1"
               d="m 262.5357,91.909734 c -0.29968,0.259236 -1.99153,1.749124 -2.61141,2.889495 -0.90359,1.662302 -1.26086,3.620909 -1.46348,5.483231 -0.19056,1.75146 0.11688,3.5156 0.24183,5.27088 0.0756,1.06025 -0.48831,2.46888 0.30675,3.17639 0.9692,0.86247 5.00216,1.57082 3.89307,-0.075 0.29393,-0.0197 0.14639,-2.19406 0.27238,-3.1285 0.25537,-1.89411 0.74962,-3.26785 1.48831,-4.75585 0.25187,-0.50736 0.78761,-0.85408 0.98507,-1.384944 0.16322,-0.438803 0.15001,-0.930429 0.13165,-1.398191 -0.0675,-1.720592 -0.98486,-3.370291 -0.88587,-5.089363 0.0349,-0.607007 0.7139,-1.28571 0.517,-1.749375 l -2.09029,-0.758309 z"
               id="path3"
               sodipodi:nodetypes="caaaassaaaaccc" /><path
               style="fill:#e0dcd1;fill-opacity:1;fill-rule:evenodd;stroke:#383838;stroke-width:0.188797;stroke-miterlimit:0;stroke-dasharray:none;stroke-opacity:1"
               d="m 259.38474,94.232027 c -2.2443,1.097836 -4.97706,3.535917 -5.12482,4.000918 -0.14774,0.465 1.00552,1.448903 1.46598,1.908135 1.02461,1.02189 1.32433,1.53323 3.01678,2.80714 1.51619,1.14123 2.73667,1.6982 4.02728,2.10516 1.05575,0.33291 2.51306,0.51145 2.40507,0.0586 -0.1908,-0.8001 -3.33789,-1.87113 -3.85866,-2.2246 -1.12821,-0.76572 -1.53336,-1.6698 -1.87678,-1.965 -0.87951,-0.75608 -1.14618,-0.84445 -2.31429,-2.243083 0.97467,-0.527001 0.80435,-0.596601 2.00839,-1.523379 1.22767,-0.944968 2.92802,-1.153397 3.55851,-1.546963 0.74531,-0.465245 -0.0917,-1.697902 0.38758,-0.957407 -0.60346,-0.847409 -0.61527,-1.188525 -2.30565,-0.805085 z"
               id="path4"
               sodipodi:nodetypes="czsssssscssccc" /><g
               id="g7"
               transform="rotate(-6.4430229,262.59844,57.999407)"
               style="fill:#e0dcd1;fill-opacity:1;stroke:#383838;stroke-width:0.1735;stroke-dasharray:none;stroke-opacity:1"><path
                 style="fill:#e0dcd1;fill-opacity:1;fill-rule:evenodd;stroke:#383838;stroke-width:0.1735;stroke-miterlimit:0;stroke-dasharray:none;stroke-opacity:1"
                 d="m 258.34323,87.985851 c 0.6016,-0.953232 1.24271,-2.11322 2.27034,-2.486458 0.8793,-0.319376 1.91749,-0.02219 2.69393,0.443535 0.58548,0.351181 1.149,0.960579 1.26283,1.641475 0.14907,0.891688 -0.47125,1.783621 -0.86465,2.570673 -0.10871,0.217521 0.036,0.857505 -0.0854,1.070424 -0.14274,0.25032 -0.18852,0.173372 -0.31122,0.27128 -0.39051,0.311615 -0.14045,0.560338 -0.58517,0.807975 -0.59775,0.332841 -0.5795,1.161684 -1.46123,0.398423 -0.19284,-0.166932 -0.72029,-0.267507 -0.75175,-0.561642 -0.0217,-0.203151 -0.13343,-0.408898 -0.18485,-0.454858 -0.36598,-0.327156 -0.53114,-0.407166 -0.82993,-0.576351 -0.37505,-0.212366 -0.66104,-1.108155 -0.88947,-1.493659 -0.36343,-0.613299 -0.49189,-0.436957 -0.22492,-0.901254 0.21574,-0.375285 0.19878,-0.14479 0.21939,-0.267674 0.0877,-0.522769 -0.5451,-0.0068 -0.25795,-0.4619 z"
                 id="path5"
                 sodipodi:nodetypes="aaaassssssssssssa" /><path
                 style="fill:#e0dcd1;fill-opacity:1;fill-rule:evenodd;stroke:#383838;stroke-width:0.1735;stroke-miterlimit:0;stroke-dasharray:none;stroke-opacity:1"
                 d="m 264.28696,89.663153 c -0.18906,-0.471645 -1.23169,-1.067758 -1.62616,-1.142876 -0.53826,-0.102496 -1.01636,-0.117191 -1.58596,0.153714 -0.48003,0.228309 -0.95814,-0.763336 -1.42061,-0.560016 -0.6497,0.285638 -0.71456,0.842273 -1.25668,1.210548 -1.03131,-0.679625 0.50691,-2.595245 0.88999,-3.669074 0.23188,-0.819712 -1.02736,-0.856078 -1.60601,-0.651159 -1.63451,0.578881 -1.75223,3.364705 -3.11843,4.550389 -0.91758,0.79634 -2.07952,1.579635 -3.19148,1.531342 -0.55266,-0.02401 -1.38059,-0.288098 -1.36391,-0.88924 0.0177,-0.637614 1.03778,-0.742887 1.5057,-1.185582 1.47368,-1.394244 2.48042,-3.339473 4.05688,-4.590766 0.78172,-0.620484 1.68087,-1.47936 2.59129,-1.377118 0.88538,0.09943 1.08945,1.545692 1.91977,1.837848 0.26729,0.09401 0.58331,-0.104867 0.87256,-0.06714 0.62513,0.08154 1.2257,0.333766 1.78537,0.623921 0.52005,0.269604 1.01387,0.571692 1.42989,1.021598 0,0 0.54068,0.678305 0.59827,1.088224 0.1006,0.716043 -0.4808,2.115271 -0.4808,2.115271 z"
                 id="path6"
                 sodipodi:nodetypes="csssssaaaaaaaaaacacc" /><path
                 style="fill:#e0dcd1;fill-opacity:1;fill-rule:evenodd;stroke:#e0dcd1;stroke-width:0.178244;stroke-miterlimit:0;stroke-dasharray:none;stroke-opacity:1"
                 d="m 259.39472,90.709653 -0.40929,2.055367 0.99744,-0.766434 1.76416,0.267905 z"
                 id="path7"
                 sodipodi:nodetypes="ccccc" /></g><path
               style="fill:#e0dcd1;fill-opacity:1;fill-rule:evenodd;stroke:#383838;stroke-width:0.1735;stroke-miterlimit:0;stroke-dasharray:none;stroke-opacity:1"
               d="m 262.95684,103.21381 c 0.67946,0.001 2.61826,1.04473 2.6697,1.3412 0.0837,0.48239 -1.56672,-0.008 -1.45935,0.16615 0.0842,0.0678 1.95876,0.79643 1.7349,1.53556 -0.2045,0.67554 -1.40265,0.41019 -2.09777,0.28783 -0.55992,-0.0986 -1.10213,-0.4378 -1.50902,-0.7949 -0.37673,-0.33048 -0.80005,-0.75907 -0.7692,-1.16474 0.0477,-0.62731 0.62932,-1.36003 1.43077,-1.37112 z"
               id="path8"
               sodipodi:nodetypes="sscaaaaas" /><path
               style="fill:#e0dcd1;fill-opacity:1;fill-rule:evenodd;stroke:#383838;stroke-width:0.1735;stroke-miterlimit:0;stroke-dasharray:none;stroke-opacity:1"
               d="m 267.9699,103.78921 c 0.40437,0.36817 2.1204,0.29847 2.31199,0.15031 0.31173,-0.24109 -2.81221,-1.21812 0.21225,0.1173 0.0868,0.006 0.85122,-0.14377 0.87794,-0.47551 0.0411,-0.50958 -0.74255,-0.73985 -1.21429,-0.93686 -0.44119,-0.18425 -0.94926,-0.26658 -1.42149,-0.19173 -0.42079,0.0667 -1.01274,0.15147 -1.15175,0.55421 -0.0948,0.2748 0.0947,0.79005 0.38532,0.78239 3e-5,0 3e-5,-7e-5 3e-5,-7e-5 z"
               id="path9"
               sodipodi:nodetypes="sscaaaaass" /><path
               style="fill:#e0dcd1;fill-opacity:1;fill-rule:evenodd;stroke:#383838;stroke-width:0.1735;stroke-miterlimit:0;stroke-dasharray:none;stroke-opacity:1"
               d="m 261.15555,107.91041 1.52492,0.56018 -1.08923,4.60593 -1.49383,-0.77803 z"
               id="path10" /><path
               style="fill:#e0dcd1;fill-opacity:1;fill-rule:evenodd;stroke:#383838;stroke-width:0.1735;stroke-miterlimit:0;stroke-dasharray:none;stroke-opacity:1"
               d="m 262.46333,107.83663 c -0.23338,0.20499 -0.6708,0.94691 -1.06618,1.7987 -0.48922,1.05396 -0.9141,2.27614 -0.80848,2.85756 0.11856,0.65267 -0.0317,2.86612 -0.90105,4.92537 -0.98939,2.34361 -2.96129,4.13037 -3.57218,4.62983 -0.92607,0.75714 -3.46505,-0.26816 -4.79387,-0.54892 -12.56532,-2.65485 -9.67305,3.30126 -12.09981,1.9508 -1.01055,-1.06305 0.69042,-2.87605 1.44244,-4.12271 0.57326,-0.95029 1.32817,-3.03 2.26712,-2.43833 1.7462,1.10037 4.46324,1.57033 6.78903,1.91726 1.65637,0.24707 4.33354,0.94906 5.02301,0.10504 1.69556,-1.80831 0.35611,-5.91479 1.70167,-8.99998 1.18182,-2.70991 1.89378,-2.70332 2.05294,-3.61082 z"
               id="path13"
               sodipodi:nodetypes="cssssscasasscc" /><path
               style="fill:#e0dcd1;fill-opacity:1;fill-rule:evenodd;stroke:#383838;stroke-width:0.1735;stroke-miterlimit:0;stroke-dasharray:none;stroke-opacity:1"
               d="m 262.2542,107.71841 c 1.44638,0.9366 3.41891,3.24285 4.76146,5.15983 0.92573,1.32181 1.67652,3.25659 2.22118,4.30159 1.19212,2.28723 1.20011,1.81411 1.14345,2.82783 -0.0668,1.19431 -1.61146,3.61804 -2.22978,4.916 -0.77601,1.62892 -0.94133,1.88662 -1.69389,3.20983 -0.8719,1.53305 -0.2437,0.49967 -1.57933,2.47307 -0.42062,0.62146 3.93055,1.74441 3.31399,3.13424 -0.60999,1.375 -3.01255,-0.11991 -4.49914,-0.34963 -0.79577,-0.12253 -1.77483,0.0126 -2.35232,-0.54847 -0.214,-0.2079 -0.26504,-0.56936 -0.22837,-0.86545 0.10478,-0.84636 0.79104,-1.51257 1.23655,-2.23976 0.24428,-0.39872 0.5379,-0.76556 0.78616,-1.1618 0.682,-1.08856 1.39357,-2.16839 1.9298,-3.33567 0.75248,-1.63802 1.92834,-4.67276 1.78699,-5.104 -0.26643,-1.11972 -3.57629,-2.97676 -5.39913,-5.3521 -0.57695,-0.75182 -0.60281,-1.47832 -2.36818,-1.72735 -1.47837,-0.20854 -2.40211,-1.26427 -2.63492,-2.15903 -0.22718,-0.87313 0.003,-2.41535 0.93929,-3.3031 0.90603,-0.85865 1.34521,-1.02223 1.17451,-1.14702 z"
               id="path14"
               sodipodi:nodetypes="casssssaaaaaaacsssscc" /><path
               style="fill:#e0dcd1;fill-opacity:1;fill-rule:evenodd;stroke:#383838;stroke-width:0;stroke-miterlimit:0;stroke-opacity:1"
               d="m 263.27205,94.992962 -2.52926,-0.224426 0.13316,1.496174 1.33119,0.897708 1.73056,-0.972515 z"
               id="path17" /></g></g><path
           style="opacity:1;mix-blend-mode:normal;fill:#254d72;fill-opacity:1;fill-rule:evenodd;stroke:none;stroke-width:0.107698;stroke-miterlimit:0;stroke-opacity:1;filter:url(#filter33)"
           d="m 197.31843,109.91958 c 0.40007,0.15632 -3.46757,1.94618 -4.20006,3.64926 -1.53637,3.57214 1.41542,7.87271 0.50551,11.65289 -0.45314,1.88256 -2.86524,5.05438 -2.86524,5.05438 l -1.2764,10.17271 -15.30598,13.65395 -9.10018,2.8296 -11.3858,0.2246 18.8329,-11.25297 9.17946,-10.58243 5.02874,-10.54418 c 0,0 1.75692,-5.63824 3.25218,-8.15397 1.43997,-2.4227 2.96763,-5.08313 5.40209,-6.50573 0.48676,-0.28444 1.58266,-0.33487 1.66434,-0.30294 z"
           id="path46"
           sodipodi:nodetypes="saaccccccccaass" /><path
           style="fill:#0a66c2;fill-opacity:1;fill-rule:evenodd;stroke:#603725;stroke-width:0;stroke-miterlimit:0"
           d="m 273.23492,150.01976 c 1.8511,-0.43331 3.43345,-1.62643 4.80116,-2.94691 1.36771,-1.32048 2.58563,-2.79966 4.05263,-4.00888 0.7335,-0.60462 1.52969,-1.14035 2.39802,-1.5271 0.86833,-0.38676 1.81172,-0.62192 2.76228,-0.61677 0.95055,0.005 1.9081,0.25785 2.70115,0.78192 0.79305,0.52407 1.41152,1.32726 1.65059,2.24727 0.27172,1.04565 0.046,2.17072 -0.40977,3.15027 -0.45574,0.97955 -1.12845,1.83931 -1.79438,2.69005 -0.66593,0.85073 -1.33717,1.71193 -1.78931,2.69315 -0.45214,0.98122 -0.67171,2.10819 -0.3923,3.15181 0.19556,0.73045 0.63049,1.38912 1.2013,1.88508 0.57082,0.49596 1.27344,0.83167 2.0102,1.00191 1.47352,0.34048 3.03917,0.0202 4.41216,-0.61391 2.34855,-1.0847 4.17801,-3.01142 6.10157,-4.74121 0.96178,-0.8649 1.96533,-1.6933 3.08028,-2.34899 1.11496,-0.6557 2.34983,-1.13628 3.63721,-1.26162 2.13718,-0.20807 4.33839,0.61765 5.85928,2.13347 1.52089,1.51582 2.35055,3.68324 2.2983,5.82989 -0.0291,1.19372 -0.32334,2.38885 -0.91672,3.42505 -0.59338,1.0362 -1.49271,1.90686 -2.57938,2.4018 -1.16498,0.5306 -2.49049,0.61475 -3.76419,0.48662 -1.27369,-0.12812 -2.51694,-0.45778 -3.76898,-0.72444 -1.25204,-0.26666 -2.53514,-0.47172 -3.80904,-0.34567 -1.2739,0.12605 -2.55067,0.6142 -3.41916,1.55464 -0.56871,0.61583 -0.93661,1.39356 -1.18715,2.19351 -0.25054,0.79995 -0.39114,1.62927 -0.55966,2.45042 -0.16852,0.82115 -0.36794,1.64339 -0.72676,2.40098 -0.35881,0.75758 -0.88951,1.4532 -1.60522,1.88959 -0.82166,0.501 -1.84362,0.6249 -2.78663,0.43294 -0.94302,-0.19197 -1.80907,-0.6828 -2.5322,-1.31779 -1.44626,-1.26997 -2.31036,-3.05547 -3.22721,-4.74777 -1.23438,-2.2784 -2.67295,-4.52099 -4.7362,-6.08872 -1.03162,-0.78387 -2.21244,-1.38577 -3.47582,-1.67312 -1.26338,-0.28735 -2.61088,-0.25133 -3.83015,0.18693 -1.33553,0.48005 -2.45725,1.40877 -3.50473,2.3663 -1.04749,0.95754 -2.06522,1.9723 -3.29326,2.68364 -2.27711,1.31901 -5.19689,1.44382 -7.59114,0.35177 -2.39426,-1.09206 -4.20798,-3.36374 -4.773,-5.93391 -0.56502,-2.57017 0.12096,-5.3794 1.78301,-7.41965 1.66205,-2.04025 4.2595,-3.27739 6.8908,-3.31339 1.83071,-0.025 3.61798,0.495 5.40001,0.91511 1.78203,0.42011 3.64972,0.74303 5.43241,0.32573 z"
           id="path1"
           transform="matrix(0.54318525,0,0,0.54318525,-4.1510699,-4.6592254)"
           sodipodi:nodetypes="ssssssssssssss"
           inkscape:original-d="m 273.23492,150.01976 c 2.97818,0.19423 15.64665,-5.29355 18.36583,-6.07047 2.7192,-0.77691 -8.27032,10.84362 -4.38576,11.68528 3.88459,0.84166 6.39353,-0.51086 7.62366,2.27308 1.2301,2.78394 8.54604,-5.56788 12.81906,-8.35182 4.27302,-2.78394 5.4384,5.30891 8.15758,7.96336 2.7192,2.65446 -2.33074,3.88457 -3.4961,5.82685 -1.16538,1.94229 -9.84091,0.64743 -14.76137,0.97115 -4.92043,0.32371 -2.71917,5.95633 -4.07879,8.9345 -1.35959,2.97817 -5.69735,-3.75508 -8.54604,-5.63262 -2.84869,-1.87754 -8.02809,-5.04994 -12.04217,-7.57491 -4.01404,-2.52497 -4.53199,3.36663 -6.79799,5.04994 -2.26599,1.68331 -2.46022,-10.87679 -3.69033,-16.31518 -1.23011,-5.4384 7.85425,1.04661 10.83242,1.24084 z"
           inkscape:path-effect="#path-effect2" /><path
           style="fill:#0a66c2;fill-opacity:1;fill-rule:evenodd;stroke:#603725;stroke-width:0;stroke-miterlimit:0"
           d="m 260.42047,154.26714 c 1.21893,0.10676 2.45461,-0.12652 3.59045,-0.58156 1.13583,-0.45503 2.17596,-1.127 3.12342,-1.90127 1.89492,-1.54854 3.41907,-3.49336 5.12319,-5.24969 1.70412,-1.75633 3.68014,-3.37507 6.04591,-4.00102 1.18289,-0.31297 2.44669,-0.36287 3.62957,-0.0499 1.18288,0.31302 2.27865,1.00174 2.99998,1.9901 0.56827,0.77865 0.89092,1.71497 1.0579,2.66437 0.16698,0.94939 0.18535,1.918 0.19351,2.88193 0.008,0.96394 0.007,1.93131 0.13515,2.88669 0.12838,0.95538 0.39208,1.90562 0.89544,2.72773 0.74852,1.2225 2.0089,2.09822 3.3922,2.47408 1.3833,0.37585 2.87719,0.26882 4.23146,-0.201 2.44305,-0.84755 4.329,-2.76811 6.21942,-4.53253 0.9452,-0.88221 1.91895,-1.74352 3.00917,-2.43859 1.09022,-0.69507 2.30729,-1.22211 3.59047,-1.3807 2.14129,-0.26464 4.37002,0.55973 5.89178,2.08925 1.52175,1.52952 2.33063,3.7175 2.2658,5.87411 -0.0358,1.19269 -0.33092,2.38578 -0.92293,3.42179 -0.59201,1.036 -1.48821,1.90841 -2.57317,2.40506 -1.16417,0.53291 -2.49021,0.61793 -3.76412,0.48967 -1.2739,-0.12826 -2.51717,-0.45894 -3.7692,-0.72667 -1.25204,-0.26773 -2.53526,-0.47394 -3.80942,-0.34825 -1.27416,0.12569 -2.55139,0.6145 -3.41863,1.5564 -0.56804,0.61693 -0.93431,1.39592 -1.18314,2.19677 -0.24882,0.80085 -0.38766,1.63082 -0.55526,2.45251 -0.16761,0.82169 -0.36702,1.64447 -0.72732,2.40174 -0.36029,0.75727 -0.8942,1.45162 -1.61307,1.88348 -0.82226,0.49397 -1.84207,0.60916 -2.78056,0.41075 -0.93849,-0.1984 -1.79802,-0.69321 -2.5166,-1.32864 -1.43715,-1.27086 -2.30227,-3.04608 -3.24888,-4.71473 -1.26132,-2.22341 -2.76404,-4.37247 -4.82084,-5.89039 -1.0284,-0.75896 -2.18888,-1.35001 -3.42779,-1.66425 -1.2389,-0.31423 -2.55757,-0.34584 -3.79354,-0.0203 -1.38194,0.36402 -2.61695,1.15692 -3.70891,2.07882 -1.09195,0.9219 -2.06105,1.97844 -3.08908,2.97112 -4.63517,4.47577 -10.66842,7.68407 -17.09359,8.16825 -3.21259,0.2421 -6.48739,-0.20113 -9.4802,-1.39379 -2.99281,-1.19266 -5.69518,-3.14308 -7.68337,-5.67812 -1.98819,-2.53505 -3.2453,-5.65614 -3.45948,-8.87071 -0.21417,-3.21457 0.63345,-6.50796 2.4634,-9.15949 1.82996,-2.65152 4.64602,-4.62816 7.7872,-5.34391 3.14119,-0.71575 6.57688,-0.13678 9.25266,1.65752 2.24915,1.50821 3.875,3.75392 5.71766,5.73835 0.92133,0.99221 1.91229,1.93204 3.04802,2.66924 1.13572,0.7372 2.42649,1.26756 3.77534,1.3857 z"
           id="path1-6"
           transform="matrix(0.50754416,0,0,-0.54318525,117.4728,175.94086)"
           sodipodi:nodetypes="ssssssssssssss"
           inkscape:original-d="m 260.42047,154.26714 c 2.97818,0.19423 21.79334,-9.01637 24.51252,-9.79329 2.7192,-0.77691 -1.60256,10.31906 2.282,11.16072 3.88459,0.84166 6.39353,-0.51086 7.62366,2.27308 1.2301,2.78394 8.54604,-5.56788 12.81906,-8.35182 4.27302,-2.78394 5.4384,5.30891 8.15758,7.96336 2.7192,2.65446 -2.33074,3.88457 -3.4961,5.82685 -1.16538,1.94229 -9.84091,0.64743 -14.76137,0.97115 -4.92043,0.32371 -2.71917,5.95633 -4.07879,8.9345 -1.35959,2.97817 -5.69735,-3.75508 -8.54604,-5.63262 -2.84869,-1.87754 -8.02809,-5.04994 -12.04217,-7.57491 -4.01404,-2.52497 -4.53199,3.36663 -6.79799,5.04994 -2.26599,1.68331 -16.98327,-15.18186 -18.21338,-20.62025 -1.23011,-5.4384 9.56285,9.59906 12.54102,9.79329 z"
           inkscape:path-effect="#path-effect2-5" /><path
           style="fill:#0a66c2;fill-opacity:1;fill-rule:evenodd;stroke:#603725;stroke-width:0;stroke-miterlimit:0"
           d="m 273.23492,150.01976 c 1.8511,-0.43331 3.43345,-1.62643 4.80116,-2.94691 1.36771,-1.32048 2.58563,-2.79966 4.05263,-4.00888 0.7335,-0.60462 1.52969,-1.14035 2.39802,-1.5271 0.86833,-0.38676 1.81172,-0.62192 2.76228,-0.61677 0.95055,0.005 1.9081,0.25785 2.70115,0.78192 0.79305,0.52407 1.41152,1.32726 1.65059,2.24727 0.27172,1.04565 0.046,2.17072 -0.40977,3.15027 -0.45574,0.97955 -1.12845,1.83931 -1.79438,2.69005 -0.66593,0.85073 -1.33717,1.71193 -1.78931,2.69315 -0.45214,0.98122 -0.67171,2.10819 -0.3923,3.15181 0.19556,0.73045 0.63049,1.38912 1.2013,1.88508 0.57082,0.49596 1.27344,0.83167 2.0102,1.00191 1.47352,0.34048 3.03917,0.0202 4.41216,-0.61391 2.34855,-1.0847 4.17801,-3.01142 6.10157,-4.74121 0.96178,-0.8649 1.96533,-1.6933 3.08028,-2.34899 1.11496,-0.6557 2.34983,-1.13628 3.63721,-1.26162 2.13718,-0.20807 4.33839,0.61765 5.85928,2.13347 1.52089,1.51582 2.35055,3.68324 2.2983,5.82989 -0.0291,1.19372 -0.32334,2.38885 -0.91672,3.42505 -0.59338,1.0362 -1.49271,1.90686 -2.57938,2.4018 -1.16498,0.5306 -2.49049,0.61475 -3.76419,0.48662 -1.27369,-0.12812 -2.51694,-0.45778 -3.76898,-0.72444 -1.25204,-0.26666 -2.53514,-0.47172 -3.80904,-0.34567 -1.2739,0.12605 -2.55067,0.6142 -3.41916,1.55464 -0.56871,0.61583 -0.93661,1.39356 -1.18715,2.19351 -0.25054,0.79995 -0.39114,1.62927 -0.55966,2.45042 -0.16852,0.82115 -0.36794,1.64339 -0.72676,2.40098 -0.35881,0.75758 -0.88951,1.4532 -1.60522,1.88959 -0.82166,0.501 -1.84362,0.6249 -2.78663,0.43294 -0.94302,-0.19197 -1.80907,-0.6828 -2.5322,-1.31779 -1.44626,-1.26997 -2.31036,-3.05547 -3.22721,-4.74777 -1.23438,-2.2784 -2.67295,-4.52099 -4.7362,-6.08872 -1.03162,-0.78387 -2.21244,-1.38577 -3.47582,-1.67312 -1.26338,-0.28735 -2.61088,-0.25133 -3.83015,0.18693 -1.33553,0.48005 -2.45725,1.40877 -3.50473,2.3663 -1.04749,0.95754 -2.06522,1.9723 -3.29326,2.68364 -2.27711,1.31901 -5.19689,1.44382 -7.59114,0.35177 -2.39426,-1.09206 -4.20798,-3.36374 -4.773,-5.93391 -0.56502,-2.57017 0.12096,-5.3794 1.78301,-7.41965 1.66205,-2.04025 4.2595,-3.27739 6.8908,-3.31339 1.83071,-0.025 3.61798,0.495 5.40001,0.91511 1.78203,0.42011 3.64972,0.74303 5.43241,0.32573 z"
           id="path1-6-7"
           transform="matrix(0.54318525,0,0,-0.54318525,159.73186,172.84255)"
           sodipodi:nodetypes="ssssssssssssss"
           inkscape:original-d="m 273.23492,150.01976 c 2.97818,0.19423 15.64665,-5.29355 18.36583,-6.07047 2.7192,-0.77691 -8.27032,10.84362 -4.38576,11.68528 3.88459,0.84166 6.39353,-0.51086 7.62366,2.27308 1.2301,2.78394 8.54604,-5.56788 12.81906,-8.35182 4.27302,-2.78394 5.4384,5.30891 8.15758,7.96336 2.7192,2.65446 -2.33074,3.88457 -3.4961,5.82685 -1.16538,1.94229 -9.84091,0.64743 -14.76137,0.97115 -4.92043,0.32371 -2.71917,5.95633 -4.07879,8.9345 -1.35959,2.97817 -5.69735,-3.75508 -8.54604,-5.63262 -2.84869,-1.87754 -8.02809,-5.04994 -12.04217,-7.57491 -4.01404,-2.52497 -4.53199,3.36663 -6.79799,5.04994 -2.26599,1.68331 -2.46022,-10.87679 -3.69033,-16.31518 -1.23011,-5.4384 7.85425,1.04661 10.83242,1.24084 z"
           inkscape:path-effect="#path-effect2-5-9" /><ellipse
           style="fill:#d2d4c6;fill-opacity:1;fill-rule:evenodd;stroke:#603725;stroke-width:0;stroke-miterlimit:0"
           id="ellipse697-2"
           cx="75.072792"
           cy="97.630005"
           rx="4.5398202"
           ry="4.4263244" /><path
           style="fill:#0a66c2;fill-opacity:1;fill-rule:evenodd;stroke:#603725;stroke-width:0;stroke-miterlimit:0"
           d="m 273.23492,150.01976 c 1.8511,-0.43331 3.43345,-1.62643 4.80116,-2.94691 1.36771,-1.32048 2.58563,-2.79966 4.05263,-4.00888 0.7335,-0.60462 1.52969,-1.14035 2.39802,-1.5271 0.86833,-0.38676 1.81172,-0.62192 2.76228,-0.61677 0.95055,0.005 1.9081,0.25785 2.70115,0.78192 0.79305,0.52407 1.41152,1.32726 1.65059,2.24727 0.27172,1.04565 0.046,2.17072 -0.40977,3.15027 -0.45574,0.97955 -1.12845,1.83931 -1.79438,2.69005 -0.66593,0.85073 -1.33717,1.71193 -1.78931,2.69315 -0.45214,0.98122 -0.67171,2.10819 -0.3923,3.15181 0.19556,0.73045 0.63049,1.38912 1.2013,1.88508 0.57082,0.49596 1.27344,0.83167 2.0102,1.00191 1.47352,0.34048 3.03917,0.0202 4.41216,-0.61391 2.34855,-1.0847 4.17801,-3.01142 6.10157,-4.74121 0.96178,-0.8649 1.96533,-1.6933 3.08028,-2.34899 1.11496,-0.6557 2.34983,-1.13628 3.63721,-1.26162 2.13718,-0.20807 4.33839,0.61765 5.85928,2.13347 1.52089,1.51582 2.35055,3.68324 2.2983,5.82989 -0.0291,1.19372 -0.32334,2.38885 -0.91672,3.42505 -0.59338,1.0362 -1.49271,1.90686 -2.57938,2.4018 -1.16498,0.5306 -2.49049,0.61475 -3.76419,0.48662 -1.27369,-0.12812 -2.51694,-0.45778 -3.76898,-0.72444 -1.25204,-0.26666 -2.53514,-0.47172 -3.80904,-0.34567 -1.2739,0.12605 -2.55067,0.6142 -3.41916,1.55464 -0.56871,0.61583 -0.93661,1.39356 -1.18715,2.19351 -0.25054,0.79995 -0.39114,1.62927 -0.55966,2.45042 -0.16852,0.82115 -0.36794,1.64339 -0.72676,2.40098 -0.35881,0.75758 -0.88951,1.4532 -1.60522,1.88959 -0.82166,0.501 -1.84362,0.6249 -2.78663,0.43294 -0.94302,-0.19197 -1.80907,-0.6828 -2.5322,-1.31779 -1.44626,-1.26997 -2.31036,-3.05547 -3.22721,-4.74777 -1.23438,-2.2784 -2.67295,-4.52099 -4.7362,-6.08872 -1.03162,-0.78387 -2.21244,-1.38577 -3.47582,-1.67312 -1.26338,-0.28735 -2.61088,-0.25133 -3.83015,0.18693 -1.33553,0.48005 -2.45725,1.40877 -3.50473,2.3663 -1.04749,0.95754 -2.06522,1.9723 -3.29326,2.68364 -2.27711,1.31901 -5.19689,1.44382 -7.59114,0.35177 -2.39426,-1.09206 -4.20798,-3.36374 -4.773,-5.93391 -0.56502,-2.57017 0.12096,-5.3794 1.78301,-7.41965 1.66205,-2.04025 4.2595,-3.27739 6.8908,-3.31339 1.83071,-0.025 3.61798,0.495 5.40001,0.91511 1.78203,0.42011 3.64972,0.74303 5.43241,0.32573 z"
           id="path1-1"
           transform="matrix(0.54318525,0,0,0.54318525,-27.793731,-4.6592254)"
           sodipodi:nodetypes="ssssssssssssss"
           inkscape:original-d="m 273.23492,150.01976 c 2.97818,0.19423 15.64665,-5.29355 18.36583,-6.07047 2.7192,-0.77691 -8.27032,10.84362 -4.38576,11.68528 3.88459,0.84166 6.39353,-0.51086 7.62366,2.27308 1.2301,2.78394 8.54604,-5.56788 12.81906,-8.35182 4.27302,-2.78394 5.4384,5.30891 8.15758,7.96336 2.7192,2.65446 -2.33074,3.88457 -3.4961,5.82685 -1.16538,1.94229 -9.84091,0.64743 -14.76137,0.97115 -4.92043,0.32371 -2.71917,5.95633 -4.07879,8.9345 -1.35959,2.97817 -5.69735,-3.75508 -8.54604,-5.63262 -2.84869,-1.87754 -8.02809,-5.04994 -12.04217,-7.57491 -4.01404,-2.52497 -4.53199,3.36663 -6.79799,5.04994 -2.26599,1.68331 -2.46022,-10.87679 -3.69033,-16.31518 -1.23011,-5.4384 7.85425,1.04661 10.83242,1.24084 z"
           inkscape:path-effect="#path-effect2-6" /><ellipse
           style="fill:#8281ef;fill-opacity:1;fill-rule:evenodd;stroke:#603725;stroke-width:0;stroke-miterlimit:0"
           id="ellipse579"
           cx="283.4007"
           cy="94.753059"
           rx="3.5868473"
           ry="3.4971759" /><path
           style="opacity:1;fill:url(#linearGradient32);fill-rule:evenodd;stroke:none;stroke-width:0.124428;stroke-miterlimit:0;stroke-opacity:1;filter:url(#filter31)"
           d="m 162.9202,106.74341 c 2.03353,2.29194 4.75454,5.0123 4.75454,5.0123 0.0628,6.95409 5.79964,10.979 8.66155,16.35488 l -0.25577,-0.26874 -3.09943,-4.83126 c 0,0 -8.50582,-13.48214 -14.473,-12.96058 -6.03792,0.52775 -3.18976,6.84878 -3.18976,6.84878 l -4.27229,-2.01203 3.75936,-6.09446 2.73408,-1.95482 2.96193,-0.68993 c 0,0 1.8651,-0.0282 2.41879,0.59586 z"
           id="path30"
           sodipodi:nodetypes="sccccscccccs" /><path
           style="opacity:1;mix-blend-mode:normal;fill:#0d5196;fill-opacity:1;fill-rule:evenodd;stroke:none;stroke-width:0.124428;stroke-miterlimit:0;stroke-opacity:1;filter:url(#filter32)"
           d="m 162.769,108.79802 c 2.62669,1.57924 4.67372,5.65387 4.67372,5.65387 l 5.68227,7.38587 4.65972,7.09814 -4.50364,-5.55075 c 0,0 -8.34176,-11.39232 -14.30894,-10.87076 -6.03792,0.52775 -7.20931,4.55408 -7.20931,4.55408 l -0.25274,0.28267 3.58534,-6.2828 2.12503,-2.18662 2.92468,-1.49909 c 0,0 0.0429,-0.13634 2.62387,1.41539 z"
           id="path31"
           sodipodi:nodetypes="sccccscccccs"
           transform="matrix(0.78473386,0,0,0.91186842,34.630937,11.630378)" /></g></g></g></svg>
